<?xml version="1.0" encoding="UTF-8"?>
<svg xmlns="http://www.w3.org/2000/svg" xmlns:xlink="http://www.w3.org/1999/xlink" width="1061px" height="280px" viewBox="0 0 1057 280" version="1.1">
<defs>
<clipPath id="clip1">
  <path d="M 493 52 L 1056.632812 52 L 1056.632812 248.992188 L 493 248.992188 Z M 493 52 "/>
</clipPath>
</defs>
<g id="surface1">
<g clip-path="url(#clip1)" clip-rule="nonzero">
<path style=" stroke:none;fill-rule:nonzero;fill:rgb(37.254902%,38.823529%,40.784314%);fill-opacity:1;" d="M 1036.9375 245.855469 C 1023.242188 245.855469 1012.769531 242.199219 1005.574219 234.910156 C 998.375 227.617188 994.75 217.277344 994.75 203.917969 L 994.75 135.265625 L 971.800781 135.265625 L 971.800781 112.816406 L 994.75 112.816406 L 994.75 72.734375 L 1019.300781 72.734375 L 1019.300781 112.816406 L 1051.332031 112.816406 L 1051.332031 135.265625 L 1019.300781 135.265625 L 1019.300781 202.058594 C 1019.300781 216.324219 1025.160156 223.433594 1036.910156 223.433594 C 1041.347656 223.433594 1045.09375 222.738281 1048.109375 221.285156 L 1056.640625 242.402344 C 1051.332031 244.695312 1044.746094 245.855469 1036.9375 245.855469 M 940.207031 162.507812 C 939.679688 155.011719 936.226562 147.898438 929.933594 141.132812 C 923.605469 134.363281 914.234375 130.964844 901.757812 130.964844 C 892.679688 130.964844 884.8125 133.816406 878.140625 139.503906 C 871.464844 145.195312 866.882812 152.863281 864.390625 162.480469 L 940.207031 162.480469 Z M 904.980469 248.007812 C 885.222656 248.007812 869.175781 241.414062 856.785156 228.230469 C 844.425781 215.042969 838.242188 198.402344 838.242188 178.277344 C 838.242188 159.222656 844.253906 142.84375 856.261719 129.109375 C 868.277344 115.398438 883.625 108.542969 902.308594 108.542969 C 921.691406 108.542969 937.246094 114.875 948.878906 127.511719 C 960.542969 140.171875 966.375 157.074219 966.375 178.277344 L 966.113281 182.804688 L 862.820312 182.804688 C 863.519531 195.988281 867.925781 206.417969 876.023438 214.054688 C 884.117188 221.722656 893.605469 225.554688 904.457031 225.554688 C 922.070312 225.554688 933.996094 218.0625 940.234375 203.105469 L 962.109375 212.195312 C 957.84375 222.359375 950.792969 230.871094 941.015625 237.726562 C 931.234375 244.578125 919.226562 248.007812 904.980469 248.007812 M 801.195312 162.507812 C 800.671875 155.011719 797.214844 147.898438 790.921875 141.132812 C 784.597656 134.363281 775.222656 130.964844 762.746094 130.964844 C 753.667969 130.964844 745.804688 133.816406 739.132812 139.503906 C 732.460938 145.195312 727.871094 152.863281 725.378906 162.480469 L 801.195312 162.480469 Z M 765.96875 248.007812 C 746.210938 248.007812 730.167969 241.414062 717.777344 228.230469 C 705.414062 215.042969 699.238281 198.402344 699.238281 178.277344 C 699.238281 159.222656 705.242188 142.84375 717.253906 129.109375 C 729.265625 115.398438 744.613281 108.542969 763.300781 108.542969 C 782.683594 108.542969 798.234375 114.875 809.867188 127.511719 C 821.53125 140.171875 827.363281 157.074219 827.363281 178.277344 L 827.105469 182.804688 L 723.808594 182.804688 C 724.507812 195.988281 728.917969 206.417969 737.011719 214.054688 C 745.109375 221.722656 754.597656 225.554688 765.449219 225.554688 C 783.0625 225.554688 794.984375 218.0625 801.222656 203.105469 L 823.101562 212.195312 C 818.832031 222.359375 811.78125 230.871094 802.007812 237.726562 C 792.203125 244.578125 780.1875 248.007812 765.96875 248.007812 M 493.113281 243.734375 L 493.113281 52.433594 L 517.664062 52.433594 L 584.164062 168.925781 L 585.238281 168.925781 L 651.710938 52.433594 L 676.253906 52.433594 L 676.253906 243.734375 L 651.710938 243.734375 L 651.710938 130.179688 L 652.78125 98.121094 L 651.710938 98.121094 L 591.90625 203.136719 L 577.488281 203.136719 L 517.691406 98.121094 L 516.617188 98.121094 L 517.691406 130.179688 L 517.691406 243.734375 "/>
</g>
<path style=" stroke:none;fill-rule:nonzero;fill:rgb(0%,67.45098%,27.843137%);fill-opacity:1;" d="M 258.113281 194.722656 L 258.113281 93.496094 L 268.59375 71.648438 L 321.03125 30.074219 C 328.015625 24.207031 338.503906 29.136719 338.503906 38.296875 L 338.503906 237 C 338.503906 246.164062 327.785156 251.089844 320.792969 245.21875 "/>
<path style=" stroke:none;fill-rule:nonzero;fill:rgb(91.764706%,26.27451%,20.784314%);fill-opacity:1;" d="M 84.621094 0.00390625 L 0 84.710938 L 84.621094 84.710938 "/>
<path style=" stroke:none;fill-rule:nonzero;fill:rgb(14.901961%,51.764706%,98.823529%);fill-opacity:1;" d="M 0 194.824219 L 84.628906 194.824219 L 84.628906 84.710938 L 0 84.710938 Z M 0 194.824219 "/>
<path style=" stroke:none;fill-rule:nonzero;fill:rgb(0%,40%,85.490196%);fill-opacity:1;" d="M 0 194.824219 L 0 251.296875 C 0 266.828125 12.691406 279.53125 28.207031 279.53125 L 84.621094 279.53125 L 84.621094 194.824219 "/>
<path style=" stroke:none;fill-rule:nonzero;fill:rgb(100%,72.941176%,0%);fill-opacity:1;" d="M 268.691406 27.914062 C 268.691406 12.5625 256.265625 0.00390625 241.078125 0.00390625 L 84.628906 0.00390625 L 84.628906 84.707031 L 188.289062 84.707031 L 188.289062 139.765625 L 268.691406 137.234375 "/>
<path style=" stroke:none;fill-rule:nonzero;fill:rgb(0%,67.45098%,27.843137%);fill-opacity:1;" d="M 188.292969 194.824219 L 84.621094 194.824219 L 84.621094 279.53125 L 241.078125 279.53125 C 256.265625 279.53125 268.6875 266.988281 268.6875 251.660156 L 268.6875 139.765625 L 188.289062 139.765625 L 188.289062 194.824219 "/>
<path style=" stroke:none;fill-rule:nonzero;fill:rgb(0%,51.372549%,17.647059%);fill-opacity:1;" d="M 268.691406 72.003906 L 268.691406 203.296875 L 188.289062 139.765625 "/>
</g>
</svg>
