<?xml version="1.0" encoding="utf-8"?>
<!-- Generator: Adobe Illustrator 21.1.0, SVG Export Plug-In . SVG Version: 6.00 Build 0)  -->
<svg version="1.1" id="Layer_1" xmlns="http://www.w3.org/2000/svg" xmlns:xlink="http://www.w3.org/1999/xlink" x="0px" y="0px"
	 viewBox="0 0 220 80" style="enable-background:new 0 0 220 80;" xml:space="preserve">
<style type="text/css">
	.st0{fill:#00B0F0;}
</style>
<path class="st0" d="M90,57.3v-4.9c0.6,0.5,1.2,0.9,2,1.3c0.8,0.4,1.6,0.7,2.5,1c0.9,0.3,1.7,0.5,2.6,0.6c0.9,0.1,1.7,0.2,2.4,0.2
	c2.5,0,4.4-0.5,5.7-1.4c1.3-0.9,1.9-2.3,1.9-4.1c0-1-0.2-1.8-0.6-2.5c-0.4-0.7-1-1.4-1.7-1.9c-0.7-0.6-1.6-1.1-2.6-1.7
	c-1-0.5-2.1-1.1-3.2-1.7c-1.2-0.6-2.4-1.3-3.4-1.9c-1.1-0.6-2-1.3-2.8-2.1c-0.8-0.8-1.4-1.6-1.9-2.6c-0.5-1-0.7-2.1-0.7-3.4
	c0-1.6,0.4-3,1.1-4.2c0.7-1.2,1.6-2.2,2.8-2.9c1.1-0.8,2.4-1.3,3.9-1.7c1.5-0.4,3-0.6,4.5-0.6c3.5,0,6,0.4,7.6,1.3v4.7
	c-2.1-1.4-4.7-2.2-8-2.2c-0.9,0-1.8,0.1-2.7,0.3c-0.9,0.2-1.7,0.5-2.4,0.9c-0.7,0.4-1.3,1-1.7,1.7c-0.4,0.7-0.7,1.5-0.7,2.5
	c0,0.9,0.2,1.7,0.5,2.3c0.3,0.7,0.8,1.3,1.5,1.8c0.7,0.5,1.5,1.1,2.4,1.6c0.9,0.5,2,1.1,3.2,1.7c1.3,0.6,2.5,1.3,3.6,2
	c1.1,0.7,2.1,1.5,3,2.3c0.9,0.8,1.5,1.8,2,2.8c0.5,1,0.7,2.2,0.7,3.5c0,1.7-0.3,3.2-1,4.4c-0.7,1.2-1.6,2.2-2.7,2.9
	c-1.2,0.8-2.5,1.3-4,1.6c-1.5,0.3-3.1,0.5-4.8,0.5c-0.6,0-1.2,0-2.1-0.1c-0.8-0.1-1.7-0.2-2.5-0.4c-0.8-0.2-1.7-0.4-2.4-0.6
	C91,57.9,90.4,57.6,90,57.3"/>
<polygon class="st0" points="135.7,58.7 130,58.7 119,46.6 118.9,46.6 118.9,58.7 114.8,58.7 114.8,21.3 118.9,21.3 118.9,45 
	119,45 129.5,33.4 134.8,33.4 123.1,45.6 "/>
<path class="st0" d="M159.4,33.4l-11.5,29.3c-2.1,5.2-5,7.8-8.7,7.8c-1,0-1.9-0.1-2.6-0.3v-3.6c0.9,0.3,1.7,0.4,2.4,0.4
	c2,0,3.5-1.2,4.6-3.6l2-4.8l-9.8-25.2h4.5l6.8,19.4c0.1,0.2,0.3,0.9,0.5,1.9h0.1c0.1-0.4,0.2-1,0.5-1.9l7.1-19.5H159.4z"/>
<path class="st0" d="M165.7,44.9v3.5c0,2.1,0.7,3.9,2,5.3c1.4,1.5,3.1,2.2,5.1,2.2c2.4,0,4.3-0.9,5.7-2.8c1.4-1.9,2.1-4.5,2.1-7.8
	c0-2.8-0.6-5-1.9-6.6c-1.3-1.6-3-2.4-5.2-2.4c-2.3,0-4.2,0.8-5.6,2.5C166.4,40.3,165.7,42.4,165.7,44.9 M165.8,55L165.8,55
	l-0.1,15.3h-4V33.4h4v4.4h0.1c2-3.4,4.9-5,8.7-5c3.2,0,5.8,1.1,7.6,3.4c1.8,2.3,2.7,5.3,2.7,9.1c0,4.2-1,7.6-3.1,10.1
	c-2,2.5-4.8,3.8-8.4,3.8C170.1,59.3,167.5,57.9,165.8,55"/>
<path class="st0" d="M205,43.7c0-2.3-0.6-4.2-1.7-5.5c-1.1-1.3-2.6-1.9-4.6-1.9c-1.9,0-3.5,0.7-4.8,2c-1.3,1.4-2.1,3.1-2.5,5.4H205z
	 M209.1,47.1h-17.7c0.1,2.8,0.8,5,2.3,6.5c1.4,1.5,3.4,2.3,5.9,2.3c2.8,0,5.4-0.9,7.8-2.8v3.8c-2.2,1.6-5.1,2.4-8.8,2.4
	c-3.5,0-6.3-1.1-8.4-3.4c-2-2.3-3-5.5-3-9.7c0-3.9,1.1-7.1,3.3-9.6c2.2-2.5,5-3.7,8.3-3.7c3.3,0,5.8,1.1,7.6,3.2
	c1.8,2.1,2.7,5.1,2.7,8.9V47.1z"/>
<path class="st0" d="M41.4,59.2c-10.1,0-14.7-5.1-14.7-8.9c0-1.9,1.5-3.3,3.5-3.3c4.3,0,3.2,6.5,11.3,6.5c4.1,0,6.5-2.5,6.5-4.8
	c0-1.4-0.8-3-3.5-3.6l-9-2.3c-7.2-1.8-8.5-5.9-8.5-9.6c0-7.7,7.1-10.5,13.8-10.5c6.2,0,13.6,3.4,13.6,8.1c0,2-1.7,3.1-3.6,3.1
	c-3.7,0-3.1-5.2-10.5-5.2c-3.7,0-5.6,1.7-5.6,4.1c0,2.4,2.9,3.2,5.4,3.8l6.6,1.5c7.3,1.6,9.2,5.9,9.2,10
	C55.9,54.3,51,59.2,41.4,59.2 M69.3,45.8c0.3-1.6,0.4-3.3,0.4-5c0-15.8-12.7-28.6-28.4-28.6c-1.7,0-3.3,0.1-4.9,0.4
	c-2.5-1.4-5.3-2.2-8.4-2.2c-9.3,0-16.9,7.6-16.9,17c0,3.1,0.8,5.9,2.2,8.4c-0.3,1.6-0.4,3.3-0.4,5c0,15.8,12.7,28.6,28.4,28.6
	c1.7,0,3.3-0.1,4.9-0.4c2.5,1.4,5.3,2.2,8.4,2.2c9.3,0,16.9-7.6,16.9-17C71.5,51.2,70.7,48.3,69.3,45.8"/>
</svg>
