<?xml version="1.0" encoding="UTF-8"?>
<svg xmlns="http://www.w3.org/2000/svg" xmlns:xlink="http://www.w3.org/1999/xlink" width="776px" height="280px" viewBox="0 0 775 280" version="1.1">
<defs>
<clipPath id="clip1">
  <path d="M 628.394531 87.085938 L 774.832031 87.085938 L 774.832031 192.363281 L 628.394531 192.363281 Z M 628.394531 87.085938 "/>
</clipPath>
<clipPath id="clip2">
  <path d="M 6.058594 6.0625 L 273.167969 6.0625 L 273.167969 273.386719 L 6.058594 273.386719 Z M 6.058594 6.0625 "/>
</clipPath>
<clipPath id="clip3">
  <path d="M 6.554688 139.945312 C 6.554688 213.613281 66.222656 273.328125 139.832031 273.328125 C 213.441406 273.328125 273.109375 213.613281 273.109375 139.945312 C 273.109375 66.277344 213.441406 6.558594 139.832031 6.558594 C 66.222656 6.558594 6.554688 66.277344 6.554688 139.945312 "/>
</clipPath>
<clipPath id="clip4">
  <path d="M 9 9 L 270.964844 9 L 270.964844 271 L 9 271 Z M 9 9 "/>
</clipPath>
<clipPath id="clip5">
  <path d="M 9.199219 139.945312 C 9.199219 212.152344 67.683594 270.6875 139.832031 270.6875 C 211.980469 270.6875 270.46875 212.152344 270.46875 139.945312 C 270.46875 67.738281 211.980469 9.203125 139.832031 9.203125 C 67.683594 9.203125 9.199219 67.738281 9.199219 139.945312 "/>
</clipPath>
<clipPath id="clip6">
  <path d="M 19.277344 19.292969 L 260.5 19.292969 L 260.5 260.707031 L 19.277344 260.707031 Z M 19.277344 19.292969 "/>
</clipPath>
<clipPath id="clip7">
  <path d="M 19.664062 139.945312 C 19.664062 206.367188 73.464844 260.214844 139.832031 260.214844 C 206.203125 260.214844 260.003906 206.367188 260.003906 139.945312 C 260.003906 73.523438 206.203125 19.675781 139.832031 19.675781 C 73.464844 19.675781 19.664062 73.523438 19.664062 139.945312 "/>
</clipPath>
<clipPath id="clip8">
  <path d="M 61.132812 98 L 215.890625 98 L 215.890625 181.890625 L 61.132812 181.890625 Z M 61.132812 98 "/>
</clipPath>
<clipPath id="clip9">
  <path d="M 147.984375 98.054688 L 65.648438 98.054688 C 63.335938 98.109375 61.464844 99.929688 61.40625 102.300781 L 61.40625 158.738281 C 61.464844 171.527344 71.871094 181.832031 84.648438 181.78125 L 166.984375 181.78125 C 169.296875 181.78125 171.171875 179.90625 171.226562 177.589844 L 171.226562 121.09375 C 171.171875 108.339844 160.816406 98.054688 148.085938 98.054688 C 148.050781 98.054688 148.015625 98.054688 147.984375 98.054688 M 210.382812 99.488281 L 176.402344 124.347656 L 176.402344 155.597656 L 210.382812 180.457031 C 212.808594 182.332031 215.613281 182.882812 215.613281 177.867188 L 215.613281 102.078125 C 215.613281 99.328125 214.757812 98.0625 213.40625 98.0625 C 212.5625 98.0625 211.523438 98.554688 210.382812 99.488281 "/>
</clipPath>
</defs>
<g id="surface1">
<path style=" stroke:none;fill-rule:nonzero;fill:rgb(29.019608%,54.901961%,100%);fill-opacity:1;" d="M 483.328125 162.101562 C 471.046875 174.339844 451.222656 174.28125 438.996094 162.046875 C 426.824219 149.8125 426.824219 129.96875 438.996094 117.734375 C 451.222656 105.441406 471.046875 105.441406 483.328125 117.675781 L 483.382812 117.734375 C 495.664062 129.96875 495.609375 149.867188 483.328125 162.101562 M 461.242188 87.636719 L 461.1875 87.636719 C 432.332031 87.636719 408.980469 111.0625 408.980469 139.890625 C 408.980469 168.769531 432.332031 192.195312 461.1875 192.195312 C 490.046875 192.195312 513.453125 168.828125 513.453125 139.945312 C 513.453125 111.0625 490.101562 87.636719 461.242188 87.636719 "/>
<path style=" stroke:none;fill-rule:nonzero;fill:rgb(29.019608%,54.901961%,100%);fill-opacity:1;" d="M 398.515625 171.582031 L 393.285156 171.308594 L 346.25 171.308594 L 408.980469 108.527344 L 408.703125 103.289062 C 408.484375 94.859375 401.707031 88.078125 393.285156 87.855469 L 388.050781 87.582031 L 309.679688 87.582031 L 309.957031 92.816406 C 310.339844 101.140625 317.007812 107.867188 325.378906 108.25 L 330.609375 108.527344 L 377.640625 108.527344 L 314.914062 171.308594 L 315.1875 176.542969 C 315.464844 184.921875 322.238281 191.703125 330.609375 191.976562 L 335.839844 192.253906 L 414.210938 192.253906 L 413.9375 187.015625 C 413.21875 178.363281 407.105469 172.078125 398.515625 171.582031 "/>
<path style=" stroke:none;fill-rule:nonzero;fill:rgb(100%,100%,100%);fill-opacity:1;" d="M 483.328125 117.621094 C 471.046875 105.386719 451.222656 105.441406 438.996094 117.675781 C 426.824219 129.914062 426.824219 149.753906 438.996094 161.992188 C 451.222656 174.28125 471.046875 174.28125 483.328125 162.046875 C 495.609375 149.8125 495.609375 129.96875 483.382812 117.675781 "/>
<g clip-path="url(#clip1)" clip-rule="nonzero">
<path style=" stroke:none;fill-rule:nonzero;fill:rgb(29.019608%,54.901961%,100%);fill-opacity:1;" d="M 732.976562 87.636719 C 720.972656 87.636719 709.570312 92.816406 701.640625 101.800781 C 687.761719 86.039062 664.300781 83.007812 646.898438 94.804688 C 642.878906 90.226562 633.734375 87.636719 628.503906 87.636719 L 628.503906 192.253906 L 633.734375 191.976562 C 642.4375 191.425781 648.828125 185.253906 649.15625 176.542969 L 649.429688 171.308594 L 649.429688 134.707031 L 649.707031 129.472656 C 649.707031 125.835938 650.640625 122.253906 652.292969 119 C 658.023438 109.023438 670.800781 105.605469 680.824219 111.394531 C 683.960938 113.210938 686.605469 115.859375 688.421875 119 L 688.367188 119 C 690.074219 122.253906 690.957031 125.835938 690.957031 129.472656 L 691.234375 134.707031 L 691.234375 171.308594 L 691.507812 176.542969 C 691.839844 184.921875 698.503906 191.644531 706.875 191.976562 L 712.105469 192.253906 L 712.105469 134.707031 L 712.382812 129.472656 C 712.382812 125.777344 713.261719 122.195312 714.96875 118.945312 C 720.75 108.96875 733.585938 105.550781 743.554688 111.394531 C 746.691406 113.210938 749.335938 115.859375 751.152344 119 C 752.804688 122.253906 753.6875 125.835938 753.6875 129.472656 L 753.960938 134.707031 L 753.960938 171.308594 L 754.238281 176.542969 C 754.511719 184.921875 761.230469 191.644531 769.601562 191.976562 L 774.832031 192.253906 L 774.832031 129.472656 C 774.78125 106.378906 756.054688 87.636719 732.976562 87.636719 "/>
</g>
<path style=" stroke:none;fill-rule:nonzero;fill:rgb(29.019608%,54.901961%,100%);fill-opacity:1;" d="M 593.089844 162.101562 C 580.808594 174.339844 560.984375 174.28125 548.753906 162.046875 C 536.585938 149.8125 536.585938 129.96875 548.753906 117.734375 C 560.984375 105.441406 580.808594 105.441406 593.089844 117.675781 L 593.144531 117.734375 C 605.429688 129.96875 605.371094 149.867188 593.089844 162.101562 M 607.90625 102.960938 C 598.101562 93.148438 584.828125 87.636719 570.949219 87.636719 C 557.074219 87.636719 543.800781 93.148438 533.996094 102.960938 C 513.621094 123.410156 513.621094 156.535156 534.050781 176.929688 C 554.484375 197.324219 587.582031 197.324219 607.960938 176.875 C 628.394531 156.480469 628.335938 123.355469 607.90625 102.960938 "/>
<path style=" stroke:none;fill-rule:nonzero;fill:rgb(100%,100%,100%);fill-opacity:1;" d="M 593.089844 117.621094 C 580.808594 105.386719 560.984375 105.441406 548.753906 117.675781 C 536.585938 129.914062 536.585938 149.753906 548.753906 161.992188 C 560.984375 174.28125 580.808594 174.28125 593.089844 162.046875 C 605.371094 149.8125 605.371094 129.96875 593.144531 117.675781 "/>
<g clip-path="url(#clip2)" clip-rule="nonzero">
<g clip-path="url(#clip3)" clip-rule="nonzero">
<path style=" stroke:none;fill-rule:nonzero;fill:rgb(89.803922%,89.803922%,89.411765%);fill-opacity:1;" d="M 0 279.835938 L 279.613281 279.835938 L 279.613281 0 L 0 0 Z M 0 279.835938 "/>
</g>
</g>
<g clip-path="url(#clip4)" clip-rule="nonzero">
<g clip-path="url(#clip5)" clip-rule="nonzero">
<path style=" stroke:none;fill-rule:nonzero;fill:rgb(100%,100%,100%);fill-opacity:1;" d="M 2.644531 277.242188 L 277.023438 277.242188 L 277.023438 2.644531 L 2.644531 2.644531 Z M 2.644531 277.242188 "/>
</g>
</g>
<g clip-path="url(#clip6)" clip-rule="nonzero">
<g clip-path="url(#clip7)" clip-rule="nonzero">
<path style=" stroke:none;fill-rule:nonzero;fill:rgb(29.019608%,54.901961%,100%);fill-opacity:1;" d="M 13.109375 266.773438 L 266.558594 266.773438 L 266.558594 13.117188 L 13.109375 13.117188 Z M 13.109375 266.773438 "/>
</g>
</g>
<g clip-path="url(#clip8)" clip-rule="nonzero">
<g clip-path="url(#clip9)" clip-rule="nonzero">
<path style=" stroke:none;fill-rule:nonzero;fill:rgb(100%,100%,100%);fill-opacity:1;" d="M 54.910156 188.285156 L 222.167969 188.285156 L 222.167969 91.550781 L 54.910156 91.550781 Z M 54.910156 188.285156 "/>
</g>
</g>
</g>
</svg>
